<?xml version="1.0" standalone="no"?><!DOCTYPE svg PUBLIC "-//W3C//DTD SVG 1.1//EN" "http://www.w3.org/Graphics/SVG/1.1/DTD/svg11.dtd"><svg t="1555939801270" class="icon" style="" viewBox="0 0 1024 1024" version="1.1" xmlns="http://www.w3.org/2000/svg" p-id="2724" xmlns:xlink="http://www.w3.org/1999/xlink" width="200" height="200"><defs><style type="text/css"></style></defs><path d="M562.120003 571.111283c-0.666172-10.680247 6.010901-22.029736 20.028149-34.046421 14.021342-12.018731 29.715789-25.3739 47.072085-40.061414 17.36039-14.688537 33.378202-31.213909 48.072879-49.569976 14.688537-18.358113 22.700001-39.553854 24.032346-63.590294 1.334391-26.037003-1.333368-50.40397-8.010441-73.110111-6.67298-22.694885-17.693987-42.221614-33.045627-58.57814-15.360849-16.356526-35.221176-29.378098-59.588143-39.061644-24.366967-9.673313-52.91107-14.511505-85.628216-14.511505-40.727587 0-74.611302 7.178493-101.655238 21.528316-27.033703 14.350846-48.900733 31.711236-65.590857 52.077076-16.689101 20.357654-28.376281 41.390689-35.053354 63.084781-6.67298 21.695115-9.67843 39.888476-9.012258 54.582129 0.667196 17.353227 6.1777 30.0412 16.522302 38.053688 10.349719 8.011464 21.533432 12.18246 33.549094 12.517081 12.018731 0.332575 23.034623-3.001357 33.04972-10.013051 10.013051-7.015787 15.017018-17.192567 15.017018-30.544667 0-8.015557 2.505054-17.859763 7.513114-29.544897 5.010107-11.67797 11.853979-22.861684 20.536732-33.550117 8.677637-10.677177 19.194154-19.694551 31.54546-27.033703 12.351306-7.344269 26.206872-11.015891 41.560558-11.015891 30.04427 0 54.078663 7.510044 72.106248 22.533202 18.027585 15.022135 26.371624 33.883715 25.039279 56.5786 0 11.349489-3.339048 21.861914-10.017144 31.544437-6.677073 9.682523-15.188934 19.028379-25.538653 28.04473-10.344602 9.012258-21.366633 18.022469-33.044604 27.033703-11.688203 9.013281-22.702048 18.362206-33.056883 28.045753-10.343579 9.67843-19.026332 20.194948-26.031886 31.54546-7.011694 11.349489-10.849092 23.698748-11.523451 37.049824l1.00591 38.055734c0 10.016121 4.672416 19.527752 14.017248 28.545126 9.347902 9.011234 21.704324 13.849426 37.061081 14.516622 15.355733-0.666172 27.538193-5.672186 36.550451-15.022135 9.011234-9.344832 13.18837-20.028149 12.516058-32.04074L562.118979 571.111283 562.120003 571.111283zM511.04372 817.462017c17.36039 0 31.882128-5.837962 43.565215-17.523095 11.688203-11.683087 17.528212-25.867134 17.528212-42.561351 0-17.361413-5.840008-31.878035-17.528212-43.566238-11.683087-11.678994-26.204825-17.523095-43.565215-17.523095-17.35118 0-31.874965 5.844102-43.557028 17.523095-11.69025 11.688203-17.528212 26.204825-17.528212 43.566238 0 16.693194 5.837962 30.878265 17.528212 42.561351C479.168756 811.624055 493.693564 817.462017 511.04372 817.462017L511.04372 817.462017zM510.048043 62.381769c62.090127 0 120.344902 11.850909 174.756139 35.550681 54.416354 23.699772 101.983719 55.748698 142.706189 96.138594 40.732703 40.389896 72.777537 87.789439 96.144734 142.201699 23.37129 54.41226 35.050284 112.662943 35.050284 174.751023 0 62.090127-11.678994 120.168893-35.050284 174.252673-23.367197 54.077639-55.412031 101.477182-96.144734 142.200676-40.72247 40.727587-88.289835 72.77242-142.706189 96.138594-54.41226 23.367197-112.667036 35.051307-174.756139 35.051307-62.095243 0-120.178103-11.68411-174.260859-35.051307-54.078663-23.366174-101.483322-55.411007-142.206816-96.138594-40.727587-40.723493-72.77242-88.123037-96.143711-142.200676-23.366174-54.084803-35.050284-112.162546-35.050284-174.252673 0-62.08808 11.68411-120.338762 35.050284-174.751023 23.37129-54.41226 55.416124-101.811804 96.143711-142.201699 40.723493-40.389896 88.129176-72.438822 142.206816-96.138594C389.86994 74.232678 447.951777 62.381769 510.048043 62.381769L510.048043 62.381769zM510.048043 62.381769" p-id="2725"></path></svg>