<?xml version="1.0" standalone="no"?><!DOCTYPE svg PUBLIC "-//W3C//DTD SVG 1.1//EN" "http://www.w3.org/Graphics/SVG/1.1/DTD/svg11.dtd"><svg t="1551948637986" class="icon" style="" viewBox="0 0 1024 1024" version="1.1" xmlns="http://www.w3.org/2000/svg" p-id="4615" xmlns:xlink="http://www.w3.org/1999/xlink" width="200" height="200"><defs><style type="text/css"></style></defs><path d="M999.328 876.787l-415.774-786.738c-9.992-16.896-28.118-28.048-48.849-28.048s-38.858 11.153-48.706 27.787l-415.917 787c-4.897 8.2-7.793 18.087-7.793 28.65 0 31.138 25.161 56.398 56.258 56.562h831.563c0.133 0.001 0.29 0.002 0.447 0.002 31.239 0 56.563-25.324 56.563-56.563 0-10.563-2.895-20.45-7.937-28.91zM534.337 282.508c40.402 0 94.761 47.748 80.804 146.917l-38.932 197.603c-1.141 22.269-18.928 40.035-41.103 41.137-22.303-1.14-40.070-18.928-41.169-41.102l-44.81-204.248c-2.527-8.918-3.98-19.16-3.98-29.74 0-53.998 37.834-99.16 88.438-110.424zM534.337 920.861c-56.797 0-102.842-46.044-102.842-102.842s46.044-102.842 102.842-102.842c56.797 0 102.842 46.044 102.842 102.842-2.033 55.195-47.27 99.169-102.775 99.169-0.023 0-0.046 0-0.069 0z" fill="" p-id="4616"></path></svg>